# xmcd
#
# Track frame offsets:
#	150
#	19009
#	32296
#	46325
#	61171
#	77576
#	89635
#	109510
#	122887
#	148375
#	161199
#	174694
#	189429
#	206441
#	223982
#	238310
#	254726
#	272119
#
# Disc length: 3801 seconds
#
# Revision: 0
# Processed by: cddbd v1.5.1PL0 Copyright (c) Steve Scherf et al.
# Submitted via: audiograbber 1.83.01
#
DISCID=0f0ed712
DTITLE=Buffett, Jimmy - Beaches - Buffett, Jimmy - Beaches
DYEAR=1900
DGENRE=Country
TTITLE0=Margaritaville
TTITLE1=Grapefruit - Juicy Fruit
TTITLE2=Ragtop Day
TTITLE3=Frank And Lola
TTITLE4=Tin Cup Chalice
TTITLE5=Knees Of My Heart
TTITLE6=Money Back Guarentee
TTITLE7=When The Coast Is Clear
TTITLE8=Biloxi
TTITLE9=Distantly In Love
TTITLE10=Coconut Telegraph
TTITLE11=Stars On The Water
TTITLE12=Who's The Blonde Stranger?
TTITLE13=I Have Found Me A Home
TTITLE14=Christmas In The Caribbean
TTITLE15=Volcano
TTITLE16=Brown Eyed Girl
TTITLE17=Cheeseburger In Paradise
EXTD=
EXTT0=
EXTT1=
EXTT2=
EXTT3=
EXTT4=
EXTT5=
EXTT6=
EXTT7=
EXTT8=
EXTT9=
EXTT10=
EXTT11=
EXTT12=
EXTT13=
EXTT14=
EXTT15=
EXTT16=
EXTT17=
PLAYORDER=
